<svg width="535" height="111" viewBox="0 0 535 111" fill="none" xmlns="http://www.w3.org/2000/svg">
<path d="M102.664 3.54296L24.6393 14.7623C11.0314 16.7191 1.55036 29.592 3.46283 43.5148L9.23419 85.5305C11.1467 99.4533 23.7284 109.154 37.3363 107.197L115.361 95.9777C128.969 94.0209 138.45 81.148 136.537 67.2252L130.766 25.2095C128.853 11.2867 116.272 1.58624 102.664 3.54296Z" fill="#FB0F5A"/>
<path d="M59.4019 37.1489C56.4373 35.8875 53.2562 38.4037 53.7031 41.6568L58.0286 73.1486C58.4756 76.4014 62.2112 77.9232 64.7212 75.875L88.6025 56.3844C91.0691 54.3717 90.5219 50.3898 87.6088 49.1501L59.4019 37.1489Z" fill="white"/>
<path d="M166.48 33.2H179.152V78H166.48V33.2ZM210.184 42.736C214.493 42.736 217.949 44.016 220.552 46.576C223.197 49.136 224.52 52.9973 224.52 58.16V78H212.36V60.144C212.36 55.408 210.461 53.04 206.664 53.04C204.573 53.04 202.888 53.7227 201.608 55.088C200.37 56.4533 199.752 58.5013 199.752 61.232V78H187.592V43.312H199.176V47.088C200.541 45.68 202.162 44.6133 204.04 43.888C205.917 43.12 207.965 42.736 210.184 42.736ZM245.402 44.592H253.658V53.68H245.722V78H233.562V53.68H228.506V44.592H233.562V43.696C233.562 39.472 234.821 36.1227 237.338 33.648C239.898 31.1733 243.461 29.936 248.026 29.936C249.562 29.936 251.055 30.0853 252.506 30.384C253.957 30.6827 255.151 31.1307 256.09 31.728L253.082 40.304C251.887 39.6213 250.671 39.28 249.434 39.28C248.154 39.28 247.151 39.664 246.426 40.432C245.743 41.2 245.402 42.3307 245.402 43.824V44.592ZM258.138 30.512H270.298V78H258.138V30.512ZM314.634 43.312V78H303.05V74.288C301.77 75.696 300.234 76.7627 298.442 77.488C296.65 78.2133 294.751 78.576 292.746 78.576C288.266 78.576 284.682 77.2533 281.994 74.608C279.349 71.9627 278.026 67.9947 278.026 62.704V43.312H290.186V60.72C290.186 63.3227 290.677 65.2213 291.658 66.416C292.639 67.6107 294.069 68.208 295.946 68.208C297.866 68.208 299.423 67.5467 300.618 66.224C301.855 64.8587 302.474 62.7893 302.474 60.016V43.312H314.634ZM357.923 60.72C357.923 60.8053 357.859 61.808 357.731 63.728H332.515C333.027 65.52 334.008 66.9067 335.458 67.888C336.952 68.8267 338.808 69.296 341.027 69.296C342.691 69.296 344.12 69.0613 345.315 68.592C346.552 68.1227 347.789 67.3547 349.027 66.288L355.427 72.944C352.056 76.6987 347.128 78.576 340.643 78.576C336.589 78.576 333.027 77.808 329.955 76.272C326.883 74.736 324.493 72.6027 322.786 69.872C321.123 67.1413 320.291 64.048 320.291 60.592C320.291 57.1787 321.101 54.128 322.723 51.44C324.387 48.7093 326.669 46.576 329.571 45.04C332.472 43.504 335.736 42.736 339.363 42.736C342.819 42.736 345.955 43.4613 348.771 44.912C351.587 46.32 353.805 48.3893 355.427 51.12C357.091 53.808 357.923 57.008 357.923 60.72ZM339.427 51.376C337.549 51.376 335.971 51.9093 334.691 52.976C333.453 54.0427 332.664 55.4933 332.323 57.328H346.531C346.189 55.4933 345.379 54.0427 344.099 52.976C342.861 51.9093 341.304 51.376 339.427 51.376ZM386.121 42.736C390.43 42.736 393.886 44.016 396.489 46.576C399.134 49.136 400.457 52.9973 400.457 58.16V78H388.297V60.144C388.297 55.408 386.398 53.04 382.601 53.04C380.51 53.04 378.825 53.7227 377.545 55.088C376.308 56.4533 375.689 58.5013 375.689 61.232V78H363.529V43.312H375.113V47.088C376.478 45.68 378.1 44.6133 379.977 43.888C381.854 43.12 383.902 42.736 386.121 42.736ZM426.32 78.576C422.48 78.576 419.045 77.808 416.016 76.272C412.986 74.736 410.618 72.6027 408.911 69.872C407.248 67.1413 406.416 64.048 406.416 60.592C406.416 57.136 407.248 54.064 408.911 51.376C410.618 48.6453 412.986 46.5333 416.016 45.04C419.045 43.504 422.48 42.736 426.32 42.736C430.245 42.736 433.637 43.5893 436.496 45.296C439.354 46.96 441.381 49.2853 442.576 52.272L433.168 57.072C431.589 53.9573 429.285 52.4 426.256 52.4C424.08 52.4 422.266 53.1253 420.816 54.576C419.408 56.0267 418.704 58.032 418.704 60.592C418.704 63.1947 419.408 65.2427 420.816 66.736C422.266 68.1867 424.08 68.912 426.256 68.912C429.285 68.912 431.589 67.3547 433.168 64.24L442.576 69.04C441.381 72.0267 439.354 74.3733 436.496 76.08C433.637 77.744 430.245 78.576 426.32 78.576ZM482.235 60.72C482.235 60.8053 482.171 61.808 482.043 63.728H456.827C457.339 65.52 458.32 66.9067 459.771 67.888C461.264 68.8267 463.12 69.296 465.339 69.296C467.003 69.296 468.432 69.0613 469.627 68.592C470.864 68.1227 472.102 67.3547 473.339 66.288L479.739 72.944C476.368 76.6987 471.44 78.576 464.955 78.576C460.902 78.576 457.339 77.808 454.267 76.272C451.195 74.736 448.806 72.6027 447.099 69.872C445.435 67.1413 444.603 64.048 444.603 60.592C444.603 57.1787 445.414 54.128 447.035 51.44C448.699 48.7093 450.982 46.576 453.883 45.04C456.784 43.504 460.048 42.736 463.675 42.736C467.131 42.736 470.267 43.4613 473.083 44.912C475.899 46.32 478.118 48.3893 479.739 51.12C481.403 53.808 482.235 57.008 482.235 60.72ZM463.739 51.376C461.862 51.376 460.283 51.9093 459.003 52.976C457.766 54.0427 456.976 55.4933 456.635 57.328H470.843C470.502 55.4933 469.691 54.0427 468.411 52.976C467.174 51.9093 465.616 51.376 463.739 51.376Z" fill="#050322"/>
<path d="M488.418 33.2H501.09V78H488.418V33.2ZM533.465 76.592C532.441 77.232 531.182 77.7227 529.689 78.064C528.238 78.4053 526.681 78.576 525.017 78.576C520.494 78.576 517.017 77.4667 514.585 75.248C512.153 73.0293 510.937 69.7227 510.937 65.328V53.68H505.881V44.592H510.937V35.568H523.097V44.592H531.033V53.68H523.097V65.2C523.097 66.4373 523.417 67.4187 524.057 68.144C524.74 68.8267 525.636 69.168 526.745 69.168C528.153 69.168 529.39 68.8053 530.457 68.08L533.465 76.592Z" fill="#FB0F5A"/>
</svg>
